<svg xmlns="http://www.w3.org/2000/svg" viewBox="0 0 600 1200" fill="none" stroke="currentColor" stroke-width="2" stroke-linecap="round" stroke-linejoin="round">
  <path d="M252 182c36-8 73-8 111 0 8 236 8 474-1 712-18-15-36-30-55-43-19 14-38 29-57 44-6-238-5-475 2-713z"/>
  <path d="M307 851c-2 50-1 98 3 145"/>
  <path d="M310 996c-24 27-50 48-78 63"/>
  <path d="M310 996c-13 33-25 67-36 101"/>
  <path d="M310 996c3 38 5 75 5 112"/>
  <path d="M310 996c18 32 35 65 51 99"/>
  <path d="M310 996c28 19 56 38 84 57"/>
  <path d="M270 214c25 5 49 5 73 0"/>
</svg>
