<svg xmlns="http://www.w3.org/2000/svg" viewBox="0 0 1200 800" fill="none" stroke="currentColor" stroke-width="2" stroke-linecap="round" stroke-linejoin="round">
  <path d="M360 552c94 9 190 10 288 2 42-4 80-10 116-18"/>
  <path d="M380 306c112-10 223-6 332 12 16 72 22 145 18 218"/>
  <path d="M730 536c-68-9-116-26-144-51-18-16-18-35 2-56 28-30 71-54 128-72"/>
  <path d="M684 391c36-44 74-67 114-70 33-3 60 12 82 44"/>
  <path d="M722 361c26-47 57-76 93-88 26-9 50-5 73 12"/>
  <path d="M750 343c14-38 35-65 62-80 23-13 46-14 70-4"/>
  <path d="M586 429c33 11 68 15 105 11"/>
  <path d="M620 468c30 11 61 13 94 5"/>
</svg>
