<svg xmlns="http://www.w3.org/2000/svg" viewBox="0 0 1200 800" fill="none" stroke="currentColor" stroke-width="2" stroke-linecap="round" stroke-linejoin="round">
  <path d="M342 514c68 10 142 15 222 14 78 1 178-4 292-17"/>
  <path d="M564 357c-72-14-145-18-220-10-22 48-38 101-50 160 88 15 178 21 270 20"/>
  <path d="M564 357c70-14 144-17 222-9 30 49 54 101 72 158-95 14-193 21-294 21"/>
  <path d="M564 357c5 55 3 111 0 170"/>
  <path d="M374 379c51-4 105-1 161 8"/>
  <path d="M605 388c52-8 104-10 156-5"/>
</svg>
