<svg xmlns="http://www.w3.org/2000/svg" viewBox="0 0 1200 800" fill="none" stroke="currentColor" stroke-width="2" stroke-linecap="round" stroke-linejoin="round">
  <path d="M336 542c147 3 308 1 480-6"/>
  <path d="M430 536c-3-84-2-163 3-236 32-4 65-4 98 1 4 76 5 154 3 234"/>
  <path d="M532 535c2-72 6-144 13-216 34-5 68-4 102 3-4 70-6 141-6 213"/>
  <path d="M650 535c-7-83-8-164-3-244 31-7 63-8 96-2 6 82 8 164 5 245"/>
  <path d="M754 534c13-72 22-143 28-214 34-1 66 6 96 20-14 68-27 134-39 196"/>
  <path d="M432 321c33 4 66 4 99 1"/>
  <path d="M548 344c31 4 62 5 93 2"/>
  <path d="M654 313c30 4 59 3 89-2"/>
</svg>
